<svg id="Layer_1" data-name="Layer 1" xmlns="http://www.w3.org/2000/svg" viewBox="0 0 1334.98 555.46">
  <defs>
    <style>
      .cls-1{fill:#f16a64}.cls-2{fill:#fbd9d7}.cls-3{fill:#fff;stroke:#fbd9d7}
    </style>
  </defs>
  <path class="cls-1" d="M1365.58 251a112 112 0 1 0-146.1 156l20.88-43.44a63.81 63.81 0 1 1 83.23-88.83Z" transform="translate(-30.6 -114)"/>
  <path class="cls-2" d="M246.23 649.78a23 23 0 0 0-.14-29.75A23 23 0 0 0 205.71 633l9.86.87a13.11 13.11 0 0 1 18.07-10.94 13.11 13.11 0 0 1 7.71 9 13.09 13.09 0 0 1-2.7 11.53Z" transform="translate(-30.6 -114)"/>
  <path class="cls-2" transform="rotate(-30 966.052 192.453)" d="M1092.08 168.85h204v47h-204z"/>
  <path class="cls-2" transform="rotate(-66.66 663.842 590.497)" d="M751.38 543.53h28.88v161.41h-28.88z"/>
  <path class="cls-1" transform="rotate(-12.2 137.154 230.96)" d="M657.56 139.74h56.01v10.02h-56.01z"/>
  <path class="cls-2" transform="rotate(-46.14 -73.866 195.408)" d="M20.92 206.76h108.67v19.44H20.92z"/>
  <circle class="cls-1" cx="797.9" cy="496.5" r="23.5"/>
  <circle class="cls-2" cx="654.9" cy="48.5" r="11.5"/>
  <circle class="cls-3" cx="1146.9" cy="448.5" r="37"/>
  <circle class="cls-3" cx="919.9" cy="19.5" r="19"/>
  <circle class="cls-3" cx="321.9" cy="19.5" r="7"/>
  <circle class="cls-3" cx="19.9" cy="290.5" r="11"/>
  <path class="cls-1" d="M77 222.07a40.24 40.24 0 1 0 74 31.61ZM221.15 594a18.45 18.45 0 1 0 36.85 2.52Z" transform="translate(-30.6 -114)"/>
</svg>