<svg id="Layer_1" data-name="Layer 1" xmlns="http://www.w3.org/2000/svg" viewBox="0 0 442.78 759">
  <defs>
    <style>
      .cls-1{fill:#f16a64}.cls-2{fill:#fbd9d7}.cls-3{fill:#fff;stroke:#fbd9d7}
    </style>
  </defs>
  <path class="cls-1" transform="rotate(-49.23 142.075 59.374)" d="M170.38 60.2h4.73v26.46h-4.73z"/>
  <ellipse class="cls-2" cx="166.3" cy="78.21" rx="5" ry="5.5" transform="rotate(-37.03 124.31 64.146)"/>
  <path class="cls-2" transform="rotate(-44.27 167.303 744.504)" d="M195.74 724.48h12.18v68.06h-12.18z"/>
  <circle class="cls-1" cx="228.08" cy="735.82" r="10"/>
  <path class="cls-2" d="M423.9 675.6a19.91 19.91 0 1 0-35.08-14.6l8.54.76a11.32 11.32 0 0 1 5.42-8.7 11.42 11.42 0 0 1 5-1.61 11.33 11.33 0 0 1 11.87 8.62 11.31 11.31 0 0 1-2.33 10Z" transform="translate(0 -28.12)"/>
  <path class="cls-1" d="M407.28 621.4a16 16 0 1 0 28 15.42Z" transform="translate(0 -28.12)"/>
  <path class="cls-2" transform="rotate(-46.14 -11.649 86.907)" d="M-4.63 96.31h51.99v9.3H-4.63z"/>
  <path class="cls-1" d="M31.05 97a19.25 19.25 0 0 0 23.28 30.67Z" transform="translate(0 -28.12)"/>
  <circle class="cls-3" cx="255.5" cy="25.38" r="7"/>
  <circle class="cls-3" cx="337.5" cy="143.38" r="5"/>
  <circle class="cls-3" cx="36" cy="389.44" r="4.4"/>
  <circle class="cls-3" cx="42.73" cy="380.17" r="6.73"/>
  <circle class="cls-3" cx="26.73" cy="656.12" r="13.45"/>
  <path class="cls-1" d="M442.78 77.16a42.22 42.22 0 1 0-55.07 58.77l7.87-16.37A24.05 24.05 0 1 1 427 86.07Z" transform="translate(0 -28.12)"/>
  <path class="cls-2" transform="rotate(-30 325.688 40.948)" d="M339.74 46.15h76.86v17.71h-76.86z"/>
</svg>